<?xml version="1.0" standalone="no"?>
<!DOCTYPE svg PUBLIC "-//W3C//DTD SVG 20010904//EN"
 "http://www.w3.org/TR/2001/REC-SVG-20010904/DTD/svg10.dtd">
<svg version="1.0" xmlns="http://www.w3.org/2000/svg"
 width="80.000000pt" height="44.000000pt" viewBox="0 0 80.000000 44.000000"
 preserveAspectRatio="xMidYMid meet">
<metadata>
Created by potrace 1.15, written by Peter Selinger 2001-2017
</metadata>
<g transform="translate(0.000000,44.000000) scale(0.100000,-0.100000)"
fill="#000000" stroke="none">
<path d="M0 220 l0 -220 400 0 400 0 0 220 0 220 -400 0 -400 0 0 -220z m705
185 c42 -17 54 -41 32 -63 -14 -13 -21 -14 -55 -3 -51 17 -74 9 -112 -39 -44
-55 -72 -124 -68 -168 3 -36 4 -37 45 -40 36 -3 46 1 78 33 20 21 34 39 31 42
-3 3 -28 0 -56 -7 -58 -14 -80 -9 -80 19 0 32 54 54 147 59 71 4 84 2 89 -13
14 -36 -77 -159 -142 -190 -17 -8 -55 -15 -83 -15 -42 0 -57 5 -76 25 -14 13
-26 32 -26 42 -1 10 -4 3 -8 -16 -7 -41 -33 -61 -58 -45 -15 9 -18 29 -21 114
l-3 102 -45 -88 c-55 -109 -61 -116 -93 -112 -29 3 -38 28 -40 116 0 30 -5 51
-10 47 -5 -3 -21 -41 -36 -84 -28 -84 -43 -105 -72 -99 -32 6 -25 47 32 191
62 154 76 177 110 177 30 0 35 -16 35 -113 0 -120 11 -124 55 -20 51 122 61
135 93 131 22 -2 27 -9 29 -33 1 -16 5 -79 9 -140 4 -71 9 -103 15 -90 4 11 8
31 8 46 1 35 44 117 88 168 67 78 117 96 188 66z"/>
</g>
</svg>
